<mxfile host="app.diagrams.net" modified="2023-10-22T12:01:27.888Z" agent="Mozilla/5.0 (X11; Linux x86_64; rv:109.0) Gecko/20100101 Firefox/118.0" etag="wJDA7F_6ai3AaNI3ukXJ" version="22.0.6" type="device">
  <diagram name="Page-1" id="g-vIKoSXDD29Opg1fgPX">
    <mxGraphModel dx="2790" dy="1703" grid="1" gridSize="10" guides="1" tooltips="1" connect="1" arrows="1" fold="1" page="0" pageScale="1" pageWidth="850" pageHeight="1100" math="0" shadow="0">
      <root>
        <mxCell id="0" />
        <mxCell id="1" parent="0" />
        <mxCell id="nb_ousC1VCXHv58T-TfJ-15" style="rounded=0;orthogonalLoop=1;jettySize=auto;html=1;exitX=0.088;exitY=0.725;exitDx=0;exitDy=0;entryX=0.5;entryY=0;entryDx=0;entryDy=0;endArrow=none;endFill=0;exitPerimeter=0;jumpSize=6;" parent="1" source="nb_ousC1VCXHv58T-TfJ-16" target="nb_ousC1VCXHv58T-TfJ-5" edge="1">
          <mxGeometry relative="1" as="geometry">
            <mxPoint x="254.99999999999727" y="190" as="sourcePoint" />
          </mxGeometry>
        </mxCell>
        <mxCell id="nb_ousC1VCXHv58T-TfJ-96" style="rounded=0;orthogonalLoop=1;jettySize=auto;html=1;exitX=0.5;exitY=1;exitDx=0;exitDy=0;entryX=0.5;entryY=0;entryDx=0;entryDy=0;endArrow=none;endFill=0;dashed=1;startArrow=classic;startFill=1;" parent="1" source="nb_ousC1VCXHv58T-TfJ-2" target="nb_ousC1VCXHv58T-TfJ-95" edge="1">
          <mxGeometry relative="1" as="geometry" />
        </mxCell>
        <mxCell id="nb_ousC1VCXHv58T-TfJ-2" value="Bar" style="ellipse;shape=doubleEllipse;margin=3;whiteSpace=wrap;html=1;align=center;" parent="1" vertex="1">
          <mxGeometry x="-90" y="320" width="100" height="40" as="geometry" />
        </mxCell>
        <mxCell id="nb_ousC1VCXHv58T-TfJ-3" value="Resztvevo" style="ellipse;shape=doubleEllipse;margin=3;whiteSpace=wrap;html=1;align=center;" parent="1" vertex="1">
          <mxGeometry x="710" y="380" width="100" height="40" as="geometry" />
        </mxCell>
        <mxCell id="nb_ousC1VCXHv58T-TfJ-75" style="rounded=0;orthogonalLoop=1;jettySize=auto;html=1;exitX=0.5;exitY=0;exitDx=0;exitDy=0;entryX=0.5;entryY=1;entryDx=0;entryDy=0;endArrow=none;endFill=0;" parent="1" source="nb_ousC1VCXHv58T-TfJ-4" target="nb_ousC1VCXHv58T-TfJ-77" edge="1">
          <mxGeometry relative="1" as="geometry">
            <mxPoint x="1389.9999999999998" y="330" as="targetPoint" />
          </mxGeometry>
        </mxCell>
        <mxCell id="nb_ousC1VCXHv58T-TfJ-4" value="Nyelvtudas" style="ellipse;shape=doubleEllipse;margin=3;whiteSpace=wrap;html=1;align=center;" parent="1" vertex="1">
          <mxGeometry x="1340" y="380" width="100" height="40" as="geometry" />
        </mxCell>
        <mxCell id="nb_ousC1VCXHv58T-TfJ-12" style="rounded=0;orthogonalLoop=1;jettySize=auto;html=1;exitX=0;exitY=1;exitDx=0;exitDy=0;entryX=0.5;entryY=0;entryDx=0;entryDy=0;endArrow=none;endFill=0;" parent="1" source="nb_ousC1VCXHv58T-TfJ-5" target="nb_ousC1VCXHv58T-TfJ-9" edge="1">
          <mxGeometry relative="1" as="geometry" />
        </mxCell>
        <mxCell id="nb_ousC1VCXHv58T-TfJ-13" style="rounded=0;orthogonalLoop=1;jettySize=auto;html=1;exitX=0.5;exitY=1;exitDx=0;exitDy=0;entryX=0.5;entryY=0;entryDx=0;entryDy=0;endArrow=none;endFill=0;" parent="1" source="nb_ousC1VCXHv58T-TfJ-5" target="nb_ousC1VCXHv58T-TfJ-10" edge="1">
          <mxGeometry relative="1" as="geometry" />
        </mxCell>
        <mxCell id="nb_ousC1VCXHv58T-TfJ-14" style="rounded=0;orthogonalLoop=1;jettySize=auto;html=1;exitX=1;exitY=1;exitDx=0;exitDy=0;entryX=0.5;entryY=0;entryDx=0;entryDy=0;endArrow=none;endFill=0;" parent="1" source="nb_ousC1VCXHv58T-TfJ-5" target="nb_ousC1VCXHv58T-TfJ-11" edge="1">
          <mxGeometry relative="1" as="geometry">
            <mxPoint x="450" y="595" as="targetPoint" />
          </mxGeometry>
        </mxCell>
        <mxCell id="nb_ousC1VCXHv58T-TfJ-5" value="Fellepo" style="ellipse;shape=doubleEllipse;margin=3;whiteSpace=wrap;html=1;align=center;" parent="1" vertex="1">
          <mxGeometry x="300" y="525" width="100" height="40" as="geometry" />
        </mxCell>
        <mxCell id="jM7tnANGyQyyf5Dl-fpU-5" style="rounded=0;orthogonalLoop=1;jettySize=auto;html=1;exitX=0;exitY=1;exitDx=0;exitDy=0;endArrow=none;endFill=0;" edge="1" parent="1" source="nb_ousC1VCXHv58T-TfJ-6" target="jM7tnANGyQyyf5Dl-fpU-2">
          <mxGeometry relative="1" as="geometry" />
        </mxCell>
        <mxCell id="jM7tnANGyQyyf5Dl-fpU-6" style="rounded=0;orthogonalLoop=1;jettySize=auto;html=1;exitX=0.5;exitY=1;exitDx=0;exitDy=0;entryX=0.5;entryY=0;entryDx=0;entryDy=0;endArrow=none;endFill=0;" edge="1" parent="1" source="nb_ousC1VCXHv58T-TfJ-6" target="jM7tnANGyQyyf5Dl-fpU-4">
          <mxGeometry relative="1" as="geometry" />
        </mxCell>
        <mxCell id="jM7tnANGyQyyf5Dl-fpU-7" style="rounded=0;orthogonalLoop=1;jettySize=auto;html=1;exitX=1;exitY=1;exitDx=0;exitDy=0;entryX=0.5;entryY=0;entryDx=0;entryDy=0;endArrow=none;endFill=0;" edge="1" parent="1" source="nb_ousC1VCXHv58T-TfJ-6" target="jM7tnANGyQyyf5Dl-fpU-3">
          <mxGeometry relative="1" as="geometry" />
        </mxCell>
        <mxCell id="nb_ousC1VCXHv58T-TfJ-6" value="Alkalmazott" style="ellipse;shape=doubleEllipse;margin=3;whiteSpace=wrap;html=1;align=center;" parent="1" vertex="1">
          <mxGeometry x="-90" y="530" width="100" height="40" as="geometry" />
        </mxCell>
        <mxCell id="nb_ousC1VCXHv58T-TfJ-8" style="edgeStyle=orthogonalEdgeStyle;rounded=0;orthogonalLoop=1;jettySize=auto;html=1;exitX=1;exitY=0.5;exitDx=0;exitDy=0;entryX=0;entryY=0.5;entryDx=0;entryDy=0;endArrow=none;endFill=0;" parent="1" source="nb_ousC1VCXHv58T-TfJ-7" target="nb_ousC1VCXHv58T-TfJ-5" edge="1">
          <mxGeometry relative="1" as="geometry" />
        </mxCell>
        <mxCell id="nb_ousC1VCXHv58T-TfJ-7" value="FEL_ID" style="rhombus;whiteSpace=wrap;html=1;" parent="1" vertex="1">
          <mxGeometry x="160" y="505" width="80" height="80" as="geometry" />
        </mxCell>
        <mxCell id="nb_ousC1VCXHv58T-TfJ-9" value="nev" style="ellipse;whiteSpace=wrap;html=1;align=center;" parent="1" vertex="1">
          <mxGeometry x="200" y="595" width="100" height="40" as="geometry" />
        </mxCell>
        <mxCell id="nb_ousC1VCXHv58T-TfJ-10" value="orszag" style="ellipse;whiteSpace=wrap;html=1;align=center;" parent="1" vertex="1">
          <mxGeometry x="300" y="595" width="100" height="40" as="geometry" />
        </mxCell>
        <mxCell id="nb_ousC1VCXHv58T-TfJ-11" value="dij" style="ellipse;whiteSpace=wrap;html=1;align=center;" parent="1" vertex="1">
          <mxGeometry x="400" y="595" width="100" height="40" as="geometry" />
        </mxCell>
        <mxCell id="nb_ousC1VCXHv58T-TfJ-32" style="rounded=0;orthogonalLoop=1;jettySize=auto;html=1;exitX=0.5;exitY=0;exitDx=0;exitDy=0;entryX=0.5;entryY=1;entryDx=0;entryDy=0;endArrow=none;endFill=0;" parent="1" source="nb_ousC1VCXHv58T-TfJ-16" target="nb_ousC1VCXHv58T-TfJ-27" edge="1">
          <mxGeometry relative="1" as="geometry" />
        </mxCell>
        <mxCell id="nb_ousC1VCXHv58T-TfJ-16" value="IIJU0ZFesztival" style="ellipse;whiteSpace=wrap;html=1;align=center;" parent="1" vertex="1">
          <mxGeometry x="340" y="250" width="100" height="40" as="geometry" />
        </mxCell>
        <mxCell id="nb_ousC1VCXHv58T-TfJ-19" style="rounded=0;orthogonalLoop=1;jettySize=auto;html=1;exitX=1;exitY=0.5;exitDx=0;exitDy=0;endArrow=none;endFill=0;" parent="1" source="nb_ousC1VCXHv58T-TfJ-18" edge="1">
          <mxGeometry relative="1" as="geometry">
            <mxPoint x="340" y="270" as="targetPoint" />
          </mxGeometry>
        </mxCell>
        <mxCell id="nb_ousC1VCXHv58T-TfJ-24" style="rounded=0;orthogonalLoop=1;jettySize=auto;html=1;exitX=0;exitY=0.5;exitDx=0;exitDy=0;entryX=1;entryY=0;entryDx=0;entryDy=0;endArrow=none;endFill=0;" parent="1" source="nb_ousC1VCXHv58T-TfJ-20" target="nb_ousC1VCXHv58T-TfJ-16" edge="1">
          <mxGeometry relative="1" as="geometry" />
        </mxCell>
        <mxCell id="nb_ousC1VCXHv58T-TfJ-20" value="nev" style="ellipse;whiteSpace=wrap;html=1;align=center;" parent="1" vertex="1">
          <mxGeometry x="460" y="210" width="100" height="40" as="geometry" />
        </mxCell>
        <mxCell id="nb_ousC1VCXHv58T-TfJ-25" style="rounded=0;orthogonalLoop=1;jettySize=auto;html=1;exitX=0.028;exitY=0.475;exitDx=0;exitDy=0;entryX=1;entryY=0.5;entryDx=0;entryDy=0;endArrow=none;endFill=0;exitPerimeter=0;" parent="1" source="nb_ousC1VCXHv58T-TfJ-21" target="nb_ousC1VCXHv58T-TfJ-16" edge="1">
          <mxGeometry relative="1" as="geometry" />
        </mxCell>
        <mxCell id="nb_ousC1VCXHv58T-TfJ-21" value="helyszin" style="ellipse;whiteSpace=wrap;html=1;align=center;" parent="1" vertex="1">
          <mxGeometry x="460" y="250" width="100" height="40" as="geometry" />
        </mxCell>
        <mxCell id="nb_ousC1VCXHv58T-TfJ-26" style="rounded=0;orthogonalLoop=1;jettySize=auto;html=1;exitX=0;exitY=0;exitDx=0;exitDy=0;entryX=1;entryY=1;entryDx=0;entryDy=0;endArrow=none;endFill=0;" parent="1" source="nb_ousC1VCXHv58T-TfJ-22" target="nb_ousC1VCXHv58T-TfJ-16" edge="1">
          <mxGeometry relative="1" as="geometry" />
        </mxCell>
        <mxCell id="nb_ousC1VCXHv58T-TfJ-22" value="&lt;div&gt;ev&lt;/div&gt;" style="ellipse;whiteSpace=wrap;html=1;align=center;" parent="1" vertex="1">
          <mxGeometry x="460" y="290" width="100" height="40" as="geometry" />
        </mxCell>
        <mxCell id="nb_ousC1VCXHv58T-TfJ-45" style="rounded=0;orthogonalLoop=1;jettySize=auto;html=1;exitX=0;exitY=0;exitDx=0;exitDy=0;entryX=0.5;entryY=1;entryDx=0;entryDy=0;endArrow=none;endFill=0;" parent="1" source="nb_ousC1VCXHv58T-TfJ-27" target="nb_ousC1VCXHv58T-TfJ-44" edge="1">
          <mxGeometry relative="1" as="geometry" />
        </mxCell>
        <mxCell id="nb_ousC1VCXHv58T-TfJ-46" style="rounded=0;orthogonalLoop=1;jettySize=auto;html=1;exitX=0.5;exitY=0;exitDx=0;exitDy=0;entryX=0.5;entryY=1;entryDx=0;entryDy=0;endArrow=none;endFill=0;" parent="1" source="nb_ousC1VCXHv58T-TfJ-27" target="nb_ousC1VCXHv58T-TfJ-43" edge="1">
          <mxGeometry relative="1" as="geometry" />
        </mxCell>
        <mxCell id="nb_ousC1VCXHv58T-TfJ-47" style="rounded=0;orthogonalLoop=1;jettySize=auto;html=1;exitX=1;exitY=0;exitDx=0;exitDy=0;entryX=0.5;entryY=1;entryDx=0;entryDy=0;endArrow=none;endFill=0;" parent="1" source="nb_ousC1VCXHv58T-TfJ-27" target="nb_ousC1VCXHv58T-TfJ-42" edge="1">
          <mxGeometry relative="1" as="geometry" />
        </mxCell>
        <mxCell id="nb_ousC1VCXHv58T-TfJ-48" style="rounded=0;orthogonalLoop=1;jettySize=auto;html=1;exitX=1;exitY=0.5;exitDx=0;exitDy=0;entryX=0.5;entryY=1;entryDx=0;entryDy=0;endArrow=none;endFill=0;" parent="1" source="nb_ousC1VCXHv58T-TfJ-27" target="nb_ousC1VCXHv58T-TfJ-41" edge="1">
          <mxGeometry relative="1" as="geometry" />
        </mxCell>
        <mxCell id="nb_ousC1VCXHv58T-TfJ-49" style="rounded=0;orthogonalLoop=1;jettySize=auto;html=1;exitX=0;exitY=0.5;exitDx=0;exitDy=0;entryX=1;entryY=1;entryDx=0;entryDy=0;endArrow=none;endFill=0;" parent="1" source="nb_ousC1VCXHv58T-TfJ-27" target="nb_ousC1VCXHv58T-TfJ-33" edge="1">
          <mxGeometry relative="1" as="geometry" />
        </mxCell>
        <mxCell id="nb_ousC1VCXHv58T-TfJ-51" style="rounded=0;orthogonalLoop=1;jettySize=auto;html=1;exitX=0;exitY=1;exitDx=0;exitDy=0;entryX=1;entryY=0.5;entryDx=0;entryDy=0;endArrow=none;endFill=0;" parent="1" source="nb_ousC1VCXHv58T-TfJ-27" target="nb_ousC1VCXHv58T-TfJ-50" edge="1">
          <mxGeometry relative="1" as="geometry" />
        </mxCell>
        <mxCell id="nb_ousC1VCXHv58T-TfJ-27" value="Tulajdonos" style="ellipse;whiteSpace=wrap;html=1;align=center;" parent="1" vertex="1">
          <mxGeometry x="340" y="-30" width="100" height="40" as="geometry" />
        </mxCell>
        <mxCell id="nb_ousC1VCXHv58T-TfJ-29" style="rounded=0;orthogonalLoop=1;jettySize=auto;html=1;exitX=0.5;exitY=1;exitDx=0;exitDy=0;entryX=0;entryY=0;entryDx=0;entryDy=0;endArrow=none;endFill=0;" parent="1" source="nb_ousC1VCXHv58T-TfJ-28" target="nb_ousC1VCXHv58T-TfJ-5" edge="1">
          <mxGeometry relative="1" as="geometry" />
        </mxCell>
        <mxCell id="nb_ousC1VCXHv58T-TfJ-30" style="edgeStyle=orthogonalEdgeStyle;rounded=0;orthogonalLoop=1;jettySize=auto;html=1;exitX=0.5;exitY=0;exitDx=0;exitDy=0;entryX=0;entryY=0.5;entryDx=0;entryDy=0;strokeColor=none;dashed=1;curved=1;" parent="1" source="nb_ousC1VCXHv58T-TfJ-18" target="nb_ousC1VCXHv58T-TfJ-16" edge="1">
          <mxGeometry relative="1" as="geometry" />
        </mxCell>
        <mxCell id="nb_ousC1VCXHv58T-TfJ-31" style="rounded=0;orthogonalLoop=1;jettySize=auto;html=1;exitX=0.5;exitY=0;exitDx=0;exitDy=0;entryX=0.5;entryY=1;entryDx=0;entryDy=0;dashed=1;edgeStyle=orthogonalEdgeStyle;" parent="1" source="nb_ousC1VCXHv58T-TfJ-28" target="nb_ousC1VCXHv58T-TfJ-18" edge="1">
          <mxGeometry relative="1" as="geometry" />
        </mxCell>
        <mxCell id="nb_ousC1VCXHv58T-TfJ-28" value="FEL_FESZ" style="rhombus;whiteSpace=wrap;html=1;" parent="1" vertex="1">
          <mxGeometry x="240" y="410" width="80" height="80" as="geometry" />
        </mxCell>
        <mxCell id="nb_ousC1VCXHv58T-TfJ-33" value="T_ID" style="rhombus;whiteSpace=wrap;html=1;" parent="1" vertex="1">
          <mxGeometry x="160" y="-130" width="80" height="80" as="geometry" />
        </mxCell>
        <mxCell id="nb_ousC1VCXHv58T-TfJ-41" value="bevetel" style="ellipse;whiteSpace=wrap;html=1;align=center;" parent="1" vertex="1">
          <mxGeometry x="540" y="-110" width="100" height="40" as="geometry" />
        </mxCell>
        <mxCell id="nb_ousC1VCXHv58T-TfJ-42" value="alapitas" style="ellipse;whiteSpace=wrap;html=1;align=center;" parent="1" vertex="1">
          <mxGeometry x="440" y="-110" width="100" height="40" as="geometry" />
        </mxCell>
        <mxCell id="nb_ousC1VCXHv58T-TfJ-43" value="adoszam" style="ellipse;whiteSpace=wrap;html=1;align=center;" parent="1" vertex="1">
          <mxGeometry x="340" y="-110" width="100" height="40" as="geometry" />
        </mxCell>
        <mxCell id="nb_ousC1VCXHv58T-TfJ-44" value="nev" style="ellipse;whiteSpace=wrap;html=1;align=center;" parent="1" vertex="1">
          <mxGeometry x="240" y="-110" width="100" height="40" as="geometry" />
        </mxCell>
        <mxCell id="nb_ousC1VCXHv58T-TfJ-52" style="rounded=0;orthogonalLoop=1;jettySize=auto;html=1;exitX=0.5;exitY=1;exitDx=0;exitDy=0;entryX=0.5;entryY=0;entryDx=0;entryDy=0;dashed=1;" parent="1" source="nb_ousC1VCXHv58T-TfJ-50" target="nb_ousC1VCXHv58T-TfJ-18" edge="1">
          <mxGeometry relative="1" as="geometry" />
        </mxCell>
        <mxCell id="nb_ousC1VCXHv58T-TfJ-50" value="FESZ_T" style="rhombus;whiteSpace=wrap;html=1;" parent="1" vertex="1">
          <mxGeometry x="240" y="20" width="80" height="80" as="geometry" />
        </mxCell>
        <mxCell id="nb_ousC1VCXHv58T-TfJ-53" value="utca" style="ellipse;whiteSpace=wrap;html=1;align=center;" parent="1" vertex="1">
          <mxGeometry x="984.77" y="380" width="100" height="40" as="geometry" />
        </mxCell>
        <mxCell id="nb_ousC1VCXHv58T-TfJ-54" value="telepules" style="ellipse;whiteSpace=wrap;html=1;align=center;" parent="1" vertex="1">
          <mxGeometry x="984.77" y="340" width="100" height="40" as="geometry" />
        </mxCell>
        <mxCell id="nb_ousC1VCXHv58T-TfJ-57" style="rounded=0;orthogonalLoop=1;jettySize=auto;html=1;exitX=1;exitY=0;exitDx=0;exitDy=0;entryX=0;entryY=0.5;entryDx=0;entryDy=0;endArrow=none;endFill=0;" parent="1" source="nb_ousC1VCXHv58T-TfJ-55" target="nb_ousC1VCXHv58T-TfJ-54" edge="1">
          <mxGeometry relative="1" as="geometry">
            <mxPoint x="940.0027913248396" y="385.809014605273" as="sourcePoint" />
          </mxGeometry>
        </mxCell>
        <mxCell id="nb_ousC1VCXHv58T-TfJ-58" style="rounded=0;orthogonalLoop=1;jettySize=auto;html=1;exitX=1;exitY=0.5;exitDx=0;exitDy=0;entryX=0;entryY=0.5;entryDx=0;entryDy=0;endArrow=none;endFill=0;" parent="1" source="nb_ousC1VCXHv58T-TfJ-55" target="nb_ousC1VCXHv58T-TfJ-53" edge="1">
          <mxGeometry relative="1" as="geometry">
            <mxPoint x="954.7700000000063" y="400" as="sourcePoint" />
          </mxGeometry>
        </mxCell>
        <mxCell id="nb_ousC1VCXHv58T-TfJ-59" style="rounded=0;orthogonalLoop=1;jettySize=auto;html=1;exitX=1;exitY=1;exitDx=0;exitDy=0;entryX=0;entryY=0.5;entryDx=0;entryDy=0;endArrow=none;endFill=0;" parent="1" source="nb_ousC1VCXHv58T-TfJ-55" target="nb_ousC1VCXHv58T-TfJ-56" edge="1">
          <mxGeometry relative="1" as="geometry">
            <mxPoint x="940.0027913248396" y="414.190985394727" as="sourcePoint" />
          </mxGeometry>
        </mxCell>
        <mxCell id="nb_ousC1VCXHv58T-TfJ-60" style="edgeStyle=orthogonalEdgeStyle;rounded=0;orthogonalLoop=1;jettySize=auto;html=1;exitX=0;exitY=0.5;exitDx=0;exitDy=0;entryX=1;entryY=0.5;entryDx=0;entryDy=0;endArrow=none;endFill=0;" parent="1" source="nb_ousC1VCXHv58T-TfJ-55" target="nb_ousC1VCXHv58T-TfJ-3" edge="1">
          <mxGeometry relative="1" as="geometry" />
        </mxCell>
        <mxCell id="nb_ousC1VCXHv58T-TfJ-55" value="&lt;div&gt;cim&lt;/div&gt;" style="ellipse;whiteSpace=wrap;html=1;align=center;" parent="1" vertex="1">
          <mxGeometry x="850" y="380" width="100" height="40" as="geometry" />
        </mxCell>
        <mxCell id="nb_ousC1VCXHv58T-TfJ-56" value="hazszam" style="ellipse;whiteSpace=wrap;html=1;align=center;" parent="1" vertex="1">
          <mxGeometry x="984.77" y="420" width="100" height="40" as="geometry" />
        </mxCell>
        <mxCell id="nb_ousC1VCXHv58T-TfJ-62" style="edgeStyle=orthogonalEdgeStyle;rounded=0;orthogonalLoop=1;jettySize=auto;html=1;exitX=0;exitY=0.5;exitDx=0;exitDy=0;entryX=1;entryY=0;entryDx=0;entryDy=0;endArrow=none;endFill=0;" parent="1" source="nb_ousC1VCXHv58T-TfJ-61" target="nb_ousC1VCXHv58T-TfJ-3" edge="1">
          <mxGeometry relative="1" as="geometry" />
        </mxCell>
        <mxCell id="nb_ousC1VCXHv58T-TfJ-61" value="R_ID" style="rhombus;whiteSpace=wrap;html=1;" parent="1" vertex="1">
          <mxGeometry x="994.77" y="260" width="80" height="80" as="geometry" />
        </mxCell>
        <mxCell id="nb_ousC1VCXHv58T-TfJ-64" style="rounded=0;orthogonalLoop=1;jettySize=auto;html=1;exitX=0;exitY=0;exitDx=0;exitDy=0;entryX=1;entryY=1;entryDx=0;entryDy=0;endArrow=none;endFill=0;" parent="1" source="nb_ousC1VCXHv58T-TfJ-63" target="nb_ousC1VCXHv58T-TfJ-3" edge="1">
          <mxGeometry relative="1" as="geometry" />
        </mxCell>
        <mxCell id="nb_ousC1VCXHv58T-TfJ-63" value="nev" style="ellipse;whiteSpace=wrap;html=1;align=center;" parent="1" vertex="1">
          <mxGeometry x="850" y="450" width="100" height="40" as="geometry" />
        </mxCell>
        <mxCell id="nb_ousC1VCXHv58T-TfJ-66" style="edgeStyle=orthogonalEdgeStyle;rounded=0;orthogonalLoop=1;jettySize=auto;html=1;exitX=0.5;exitY=0;exitDx=0;exitDy=0;entryX=0;entryY=0;entryDx=0;entryDy=0;dashed=1;" parent="1" source="nb_ousC1VCXHv58T-TfJ-65" target="nb_ousC1VCXHv58T-TfJ-18" edge="1">
          <mxGeometry relative="1" as="geometry">
            <Array as="points">
              <mxPoint x="845" y="-290" />
              <mxPoint x="140" y="-290" />
              <mxPoint x="140" y="200" />
              <mxPoint x="260" y="200" />
            </Array>
          </mxGeometry>
        </mxCell>
        <mxCell id="nb_ousC1VCXHv58T-TfJ-67" style="edgeStyle=orthogonalEdgeStyle;rounded=0;orthogonalLoop=1;jettySize=auto;html=1;exitX=0;exitY=0.5;exitDx=0;exitDy=0;entryX=0.5;entryY=0;entryDx=0;entryDy=0;endArrow=none;endFill=0;" parent="1" source="nb_ousC1VCXHv58T-TfJ-65" target="nb_ousC1VCXHv58T-TfJ-3" edge="1">
          <mxGeometry relative="1" as="geometry" />
        </mxCell>
        <mxCell id="nb_ousC1VCXHv58T-TfJ-65" value="FESZ_R" style="rhombus;whiteSpace=wrap;html=1;" parent="1" vertex="1">
          <mxGeometry x="995" y="180" width="80" height="80" as="geometry" />
        </mxCell>
        <mxCell id="nb_ousC1VCXHv58T-TfJ-68" style="edgeStyle=orthogonalEdgeStyle;rounded=0;orthogonalLoop=1;jettySize=auto;html=1;exitX=0;exitY=0.5;exitDx=0;exitDy=0;entryX=0.5;entryY=1;entryDx=0;entryDy=0;endArrow=none;endFill=0;" parent="1" source="nb_ousC1VCXHv58T-TfJ-3" target="nb_ousC1VCXHv58T-TfJ-16" edge="1">
          <mxGeometry relative="1" as="geometry">
            <mxPoint x="509.2999999999998" y="398.88" as="sourcePoint" />
            <mxPoint x="329.99999999999983" y="299.9999999999999" as="targetPoint" />
          </mxGeometry>
        </mxCell>
        <mxCell id="nb_ousC1VCXHv58T-TfJ-76" style="rounded=0;orthogonalLoop=1;jettySize=auto;html=1;exitX=0;exitY=0.5;exitDx=0;exitDy=0;entryX=1;entryY=0.5;entryDx=0;entryDy=0;endArrow=classic;endFill=1;dashed=1;" parent="1" source="nb_ousC1VCXHv58T-TfJ-77" target="nb_ousC1VCXHv58T-TfJ-61" edge="1">
          <mxGeometry relative="1" as="geometry">
            <mxPoint x="775.2299999999998" y="570" as="sourcePoint" />
            <mxPoint x="1090" y="300" as="targetPoint" />
          </mxGeometry>
        </mxCell>
        <mxCell id="nb_ousC1VCXHv58T-TfJ-72" style="rounded=0;orthogonalLoop=1;jettySize=auto;html=1;exitX=0.5;exitY=1;exitDx=0;exitDy=0;entryX=0.5;entryY=0;entryDx=0;entryDy=0;endArrow=none;endFill=0;" parent="1" source="nb_ousC1VCXHv58T-TfJ-70" target="nb_ousC1VCXHv58T-TfJ-77" edge="1">
          <mxGeometry relative="1" as="geometry">
            <mxPoint x="1414.9999999999998" y="300" as="targetPoint" />
          </mxGeometry>
        </mxCell>
        <mxCell id="nb_ousC1VCXHv58T-TfJ-70" value="K_ID" style="rhombus;whiteSpace=wrap;html=1;" parent="1" vertex="1">
          <mxGeometry x="1350" y="160" width="80" height="80" as="geometry" />
        </mxCell>
        <mxCell id="nb_ousC1VCXHv58T-TfJ-73" style="rounded=0;orthogonalLoop=1;jettySize=auto;html=1;exitX=0;exitY=0;exitDx=0;exitDy=0;entryX=1;entryY=1;entryDx=0;entryDy=0;endArrow=none;endFill=0;" parent="1" source="nb_ousC1VCXHv58T-TfJ-71" target="nb_ousC1VCXHv58T-TfJ-77" edge="1">
          <mxGeometry relative="1" as="geometry">
            <mxPoint x="1414.9999999999998" y="320" as="targetPoint" />
          </mxGeometry>
        </mxCell>
        <mxCell id="nb_ousC1VCXHv58T-TfJ-71" value="kerdezo" style="ellipse;whiteSpace=wrap;html=1;align=center;" parent="1" vertex="1">
          <mxGeometry x="1440" y="315" width="100" height="40" as="geometry" />
        </mxCell>
        <mxCell id="nb_ousC1VCXHv58T-TfJ-77" value="kozvelemeny" style="rhombus;whiteSpace=wrap;html=1;" parent="1" vertex="1">
          <mxGeometry x="1350" y="260" width="80" height="80" as="geometry" />
        </mxCell>
        <mxCell id="nb_ousC1VCXHv58T-TfJ-82" style="edgeStyle=orthogonalEdgeStyle;rounded=0;orthogonalLoop=1;jettySize=auto;html=1;exitX=0.5;exitY=0;exitDx=0;exitDy=0;entryX=0.5;entryY=1;entryDx=0;entryDy=0;endArrow=none;endFill=0;" parent="1" source="nb_ousC1VCXHv58T-TfJ-79" target="nb_ousC1VCXHv58T-TfJ-4" edge="1">
          <mxGeometry relative="1" as="geometry" />
        </mxCell>
        <mxCell id="nb_ousC1VCXHv58T-TfJ-79" value="nyelv" style="ellipse;whiteSpace=wrap;html=1;align=center;" parent="1" vertex="1">
          <mxGeometry x="1340" y="440" width="100" height="40" as="geometry" />
        </mxCell>
        <mxCell id="nb_ousC1VCXHv58T-TfJ-83" style="rounded=0;orthogonalLoop=1;jettySize=auto;html=1;exitX=0;exitY=0;exitDx=0;exitDy=0;entryX=1;entryY=1;entryDx=0;entryDy=0;endArrow=none;endFill=0;" parent="1" source="nb_ousC1VCXHv58T-TfJ-80" target="nb_ousC1VCXHv58T-TfJ-4" edge="1">
          <mxGeometry relative="1" as="geometry" />
        </mxCell>
        <mxCell id="nb_ousC1VCXHv58T-TfJ-80" value="szint" style="ellipse;whiteSpace=wrap;html=1;align=center;" parent="1" vertex="1">
          <mxGeometry x="1440" y="440" width="100" height="40" as="geometry" />
        </mxCell>
        <mxCell id="nb_ousC1VCXHv58T-TfJ-84" style="rounded=0;orthogonalLoop=1;jettySize=auto;html=1;exitX=1;exitY=0.5;exitDx=0;exitDy=0;entryX=1;entryY=0.5;entryDx=0;entryDy=0;endArrow=none;endFill=0;" parent="1" source="nb_ousC1VCXHv58T-TfJ-81" target="nb_ousC1VCXHv58T-TfJ-4" edge="1">
          <mxGeometry relative="1" as="geometry" />
        </mxCell>
        <mxCell id="nb_ousC1VCXHv58T-TfJ-81" value="NY_ID" style="rhombus;whiteSpace=wrap;html=1;" parent="1" vertex="1">
          <mxGeometry x="1550" y="360" width="80" height="80" as="geometry" />
        </mxCell>
        <mxCell id="nb_ousC1VCXHv58T-TfJ-94" style="rounded=0;orthogonalLoop=1;jettySize=auto;html=1;exitX=0.5;exitY=1;exitDx=0;exitDy=0;entryX=0.5;entryY=0;entryDx=0;entryDy=0;endArrow=none;endFill=0;" parent="1" source="nb_ousC1VCXHv58T-TfJ-85" target="nb_ousC1VCXHv58T-TfJ-2" edge="1">
          <mxGeometry relative="1" as="geometry" />
        </mxCell>
        <mxCell id="jM7tnANGyQyyf5Dl-fpU-9" style="edgeStyle=orthogonalEdgeStyle;rounded=0;orthogonalLoop=1;jettySize=auto;html=1;exitX=1;exitY=0.5;exitDx=0;exitDy=0;entryX=0;entryY=0.5;entryDx=0;entryDy=0;dashed=1;" edge="1" parent="1" source="nb_ousC1VCXHv58T-TfJ-85" target="nb_ousC1VCXHv58T-TfJ-18">
          <mxGeometry relative="1" as="geometry" />
        </mxCell>
        <mxCell id="nb_ousC1VCXHv58T-TfJ-85" value="FESZ_B" style="rhombus;whiteSpace=wrap;html=1;" parent="1" vertex="1">
          <mxGeometry x="-80" y="230" width="80" height="80" as="geometry" />
        </mxCell>
        <mxCell id="nb_ousC1VCXHv58T-TfJ-88" style="rounded=0;orthogonalLoop=1;jettySize=auto;html=1;exitX=1;exitY=0.5;exitDx=0;exitDy=0;entryX=0;entryY=0;entryDx=0;entryDy=0;endArrow=none;endFill=0;" parent="1" source="nb_ousC1VCXHv58T-TfJ-87" target="nb_ousC1VCXHv58T-TfJ-2" edge="1">
          <mxGeometry relative="1" as="geometry" />
        </mxCell>
        <mxCell id="nb_ousC1VCXHv58T-TfJ-87" value="&lt;div&gt;ital&lt;/div&gt;" style="ellipse;shape=doubleEllipse;margin=3;whiteSpace=wrap;html=1;align=center;" parent="1" vertex="1">
          <mxGeometry x="-250" y="280" width="100" height="40" as="geometry" />
        </mxCell>
        <mxCell id="nb_ousC1VCXHv58T-TfJ-92" style="rounded=0;orthogonalLoop=1;jettySize=auto;html=1;exitX=1;exitY=0.5;exitDx=0;exitDy=0;entryX=0;entryY=0.5;entryDx=0;entryDy=0;endArrow=none;endFill=0;" parent="1" source="nb_ousC1VCXHv58T-TfJ-89" target="nb_ousC1VCXHv58T-TfJ-2" edge="1">
          <mxGeometry relative="1" as="geometry" />
        </mxCell>
        <mxCell id="nb_ousC1VCXHv58T-TfJ-89" value="nev" style="ellipse;whiteSpace=wrap;html=1;align=center;" parent="1" vertex="1">
          <mxGeometry x="-250" y="320" width="100" height="40" as="geometry" />
        </mxCell>
        <mxCell id="nb_ousC1VCXHv58T-TfJ-93" style="rounded=0;orthogonalLoop=1;jettySize=auto;html=1;exitX=1;exitY=0.5;exitDx=0;exitDy=0;entryX=0;entryY=1;entryDx=0;entryDy=0;endArrow=none;endFill=0;" parent="1" source="nb_ousC1VCXHv58T-TfJ-90" target="nb_ousC1VCXHv58T-TfJ-2" edge="1">
          <mxGeometry relative="1" as="geometry" />
        </mxCell>
        <mxCell id="nb_ousC1VCXHv58T-TfJ-90" value="ceg" style="ellipse;whiteSpace=wrap;html=1;align=center;" parent="1" vertex="1">
          <mxGeometry x="-250" y="360" width="100" height="40" as="geometry" />
        </mxCell>
        <mxCell id="nb_ousC1VCXHv58T-TfJ-97" style="rounded=0;orthogonalLoop=1;jettySize=auto;html=1;exitX=0.5;exitY=1;exitDx=0;exitDy=0;entryX=0.5;entryY=0;entryDx=0;entryDy=0;endArrow=none;endFill=0;" parent="1" source="nb_ousC1VCXHv58T-TfJ-95" target="nb_ousC1VCXHv58T-TfJ-6" edge="1">
          <mxGeometry relative="1" as="geometry" />
        </mxCell>
        <mxCell id="nb_ousC1VCXHv58T-TfJ-95" value="B_A" style="rhombus;whiteSpace=wrap;html=1;" parent="1" vertex="1">
          <mxGeometry x="-80" y="400" width="80" height="80" as="geometry" />
        </mxCell>
        <mxCell id="jM7tnANGyQyyf5Dl-fpU-8" style="rounded=0;orthogonalLoop=1;jettySize=auto;html=1;exitX=1;exitY=0.5;exitDx=0;exitDy=0;entryX=0;entryY=0.5;entryDx=0;entryDy=0;endArrow=none;endFill=0;" edge="1" parent="1" source="jM7tnANGyQyyf5Dl-fpU-1" target="nb_ousC1VCXHv58T-TfJ-6">
          <mxGeometry relative="1" as="geometry" />
        </mxCell>
        <mxCell id="jM7tnANGyQyyf5Dl-fpU-1" value="A_ID" style="rhombus;whiteSpace=wrap;html=1;" vertex="1" parent="1">
          <mxGeometry x="-230" y="510" width="80" height="80" as="geometry" />
        </mxCell>
        <mxCell id="jM7tnANGyQyyf5Dl-fpU-2" value="nev" style="ellipse;whiteSpace=wrap;html=1;align=center;" vertex="1" parent="1">
          <mxGeometry x="-200" y="610" width="100" height="40" as="geometry" />
        </mxCell>
        <mxCell id="jM7tnANGyQyyf5Dl-fpU-3" value="&lt;div&gt;fizetes&lt;/div&gt;" style="ellipse;whiteSpace=wrap;html=1;align=center;" vertex="1" parent="1">
          <mxGeometry y="610" width="100" height="40" as="geometry" />
        </mxCell>
        <mxCell id="jM7tnANGyQyyf5Dl-fpU-4" value="muszak" style="ellipse;shape=doubleEllipse;margin=3;whiteSpace=wrap;html=1;align=center;" vertex="1" parent="1">
          <mxGeometry x="-100" y="610" width="100" height="40" as="geometry" />
        </mxCell>
        <mxCell id="jM7tnANGyQyyf5Dl-fpU-11" value="" style="edgeStyle=orthogonalEdgeStyle;rounded=0;orthogonalLoop=1;jettySize=auto;html=1;exitX=0.5;exitY=0;exitDx=0;exitDy=0;entryX=0;entryY=0.5;entryDx=0;entryDy=0;strokeColor=none;dashed=1;curved=1;" edge="1" parent="1" source="nb_ousC1VCXHv58T-TfJ-28" target="nb_ousC1VCXHv58T-TfJ-18">
          <mxGeometry relative="1" as="geometry">
            <mxPoint x="280" y="430" as="sourcePoint" />
            <mxPoint x="340" y="270" as="targetPoint" />
          </mxGeometry>
        </mxCell>
        <mxCell id="nb_ousC1VCXHv58T-TfJ-18" value="FESZ_ID" style="rhombus;whiteSpace=wrap;html=1;" parent="1" vertex="1">
          <mxGeometry x="240" y="230" width="80" height="80" as="geometry" />
        </mxCell>
        <mxCell id="jM7tnANGyQyyf5Dl-fpU-16" style="rounded=0;orthogonalLoop=1;jettySize=auto;html=1;exitX=1;exitY=0.5;exitDx=0;exitDy=0;entryX=0;entryY=0.5;entryDx=0;entryDy=0;endArrow=none;endFill=0;" edge="1" parent="1" source="jM7tnANGyQyyf5Dl-fpU-12" target="nb_ousC1VCXHv58T-TfJ-87">
          <mxGeometry relative="1" as="geometry" />
        </mxCell>
        <mxCell id="jM7tnANGyQyyf5Dl-fpU-12" value="" style="rounded=0;whiteSpace=wrap;html=1;" vertex="1" parent="1">
          <mxGeometry x="-370" y="220" width="60" height="90" as="geometry" />
        </mxCell>
        <mxCell id="jM7tnANGyQyyf5Dl-fpU-18" style="rounded=0;orthogonalLoop=1;jettySize=auto;html=1;exitX=1;exitY=0.5;exitDx=0;exitDy=0;entryX=0;entryY=1;entryDx=0;entryDy=0;endArrow=none;endFill=0;" edge="1" parent="1" source="jM7tnANGyQyyf5Dl-fpU-13" target="nb_ousC1VCXHv58T-TfJ-90">
          <mxGeometry relative="1" as="geometry" />
        </mxCell>
        <mxCell id="jM7tnANGyQyyf5Dl-fpU-13" value="" style="rounded=0;whiteSpace=wrap;html=1;" vertex="1" parent="1">
          <mxGeometry x="-370" y="410" width="60" height="90" as="geometry" />
        </mxCell>
        <mxCell id="jM7tnANGyQyyf5Dl-fpU-17" style="rounded=0;orthogonalLoop=1;jettySize=auto;html=1;exitX=1;exitY=0.5;exitDx=0;exitDy=0;entryX=0;entryY=0.5;entryDx=0;entryDy=0;endArrow=none;endFill=0;" edge="1" parent="1" source="jM7tnANGyQyyf5Dl-fpU-14" target="nb_ousC1VCXHv58T-TfJ-89">
          <mxGeometry relative="1" as="geometry" />
        </mxCell>
        <mxCell id="jM7tnANGyQyyf5Dl-fpU-14" value="" style="rounded=0;whiteSpace=wrap;html=1;" vertex="1" parent="1">
          <mxGeometry x="-370" y="315" width="60" height="90" as="geometry" />
        </mxCell>
        <mxCell id="jM7tnANGyQyyf5Dl-fpU-24" style="rounded=0;orthogonalLoop=1;jettySize=auto;html=1;exitX=0.5;exitY=0;exitDx=0;exitDy=0;entryX=0.5;entryY=1;entryDx=0;entryDy=0;endArrow=none;endFill=0;" edge="1" parent="1" source="jM7tnANGyQyyf5Dl-fpU-19" target="jM7tnANGyQyyf5Dl-fpU-3">
          <mxGeometry relative="1" as="geometry" />
        </mxCell>
        <mxCell id="jM7tnANGyQyyf5Dl-fpU-19" value="" style="rounded=0;whiteSpace=wrap;html=1;" vertex="1" parent="1">
          <mxGeometry x="20" y="680" width="60" height="90" as="geometry" />
        </mxCell>
        <mxCell id="jM7tnANGyQyyf5Dl-fpU-23" style="rounded=0;orthogonalLoop=1;jettySize=auto;html=1;exitX=0.5;exitY=0;exitDx=0;exitDy=0;entryX=0.5;entryY=1;entryDx=0;entryDy=0;endArrow=none;endFill=0;" edge="1" parent="1" source="jM7tnANGyQyyf5Dl-fpU-20" target="jM7tnANGyQyyf5Dl-fpU-4">
          <mxGeometry relative="1" as="geometry" />
        </mxCell>
        <mxCell id="jM7tnANGyQyyf5Dl-fpU-20" value="" style="rounded=0;whiteSpace=wrap;html=1;" vertex="1" parent="1">
          <mxGeometry x="-80" y="680" width="60" height="90" as="geometry" />
        </mxCell>
        <mxCell id="jM7tnANGyQyyf5Dl-fpU-22" style="rounded=0;orthogonalLoop=1;jettySize=auto;html=1;exitX=0.5;exitY=0;exitDx=0;exitDy=0;entryX=0.5;entryY=1;entryDx=0;entryDy=0;endArrow=none;endFill=0;" edge="1" parent="1" source="jM7tnANGyQyyf5Dl-fpU-21" target="jM7tnANGyQyyf5Dl-fpU-2">
          <mxGeometry relative="1" as="geometry" />
        </mxCell>
        <mxCell id="jM7tnANGyQyyf5Dl-fpU-21" value="" style="rounded=0;whiteSpace=wrap;html=1;" vertex="1" parent="1">
          <mxGeometry x="-180" y="680" width="60" height="90" as="geometry" />
        </mxCell>
        <mxCell id="jM7tnANGyQyyf5Dl-fpU-31" style="rounded=0;orthogonalLoop=1;jettySize=auto;html=1;exitX=0.5;exitY=0;exitDx=0;exitDy=0;entryX=0.5;entryY=1;entryDx=0;entryDy=0;endArrow=none;endFill=0;" edge="1" parent="1" source="jM7tnANGyQyyf5Dl-fpU-26" target="nb_ousC1VCXHv58T-TfJ-11">
          <mxGeometry relative="1" as="geometry" />
        </mxCell>
        <mxCell id="jM7tnANGyQyyf5Dl-fpU-26" value="" style="rounded=0;whiteSpace=wrap;html=1;" vertex="1" parent="1">
          <mxGeometry x="420" y="670" width="60" height="90" as="geometry" />
        </mxCell>
        <mxCell id="jM7tnANGyQyyf5Dl-fpU-30" style="rounded=0;orthogonalLoop=1;jettySize=auto;html=1;exitX=0.5;exitY=0;exitDx=0;exitDy=0;entryX=0.5;entryY=1;entryDx=0;entryDy=0;endArrow=none;endFill=0;" edge="1" parent="1" source="jM7tnANGyQyyf5Dl-fpU-27" target="nb_ousC1VCXHv58T-TfJ-10">
          <mxGeometry relative="1" as="geometry" />
        </mxCell>
        <mxCell id="jM7tnANGyQyyf5Dl-fpU-27" value="" style="rounded=0;whiteSpace=wrap;html=1;" vertex="1" parent="1">
          <mxGeometry x="320" y="670" width="60" height="90" as="geometry" />
        </mxCell>
        <mxCell id="jM7tnANGyQyyf5Dl-fpU-29" style="rounded=0;orthogonalLoop=1;jettySize=auto;html=1;exitX=0.5;exitY=0;exitDx=0;exitDy=0;entryX=0.5;entryY=1;entryDx=0;entryDy=0;endArrow=none;endFill=0;" edge="1" parent="1" source="jM7tnANGyQyyf5Dl-fpU-28" target="nb_ousC1VCXHv58T-TfJ-9">
          <mxGeometry relative="1" as="geometry" />
        </mxCell>
        <mxCell id="jM7tnANGyQyyf5Dl-fpU-28" value="" style="rounded=0;whiteSpace=wrap;html=1;" vertex="1" parent="1">
          <mxGeometry x="220" y="670" width="60" height="90" as="geometry" />
        </mxCell>
        <mxCell id="jM7tnANGyQyyf5Dl-fpU-35" style="rounded=0;orthogonalLoop=1;jettySize=auto;html=1;exitX=0.5;exitY=0;exitDx=0;exitDy=0;entryX=0.5;entryY=1;entryDx=0;entryDy=0;endArrow=none;endFill=0;" edge="1" parent="1" source="jM7tnANGyQyyf5Dl-fpU-33" target="nb_ousC1VCXHv58T-TfJ-80">
          <mxGeometry relative="1" as="geometry" />
        </mxCell>
        <mxCell id="jM7tnANGyQyyf5Dl-fpU-33" value="" style="rounded=0;whiteSpace=wrap;html=1;" vertex="1" parent="1">
          <mxGeometry x="1460" y="505" width="60" height="90" as="geometry" />
        </mxCell>
        <mxCell id="jM7tnANGyQyyf5Dl-fpU-36" style="rounded=0;orthogonalLoop=1;jettySize=auto;html=1;exitX=0.5;exitY=0;exitDx=0;exitDy=0;entryX=0.5;entryY=1;entryDx=0;entryDy=0;endArrow=none;endFill=0;" edge="1" parent="1" source="jM7tnANGyQyyf5Dl-fpU-34" target="nb_ousC1VCXHv58T-TfJ-79">
          <mxGeometry relative="1" as="geometry" />
        </mxCell>
        <mxCell id="jM7tnANGyQyyf5Dl-fpU-34" value="" style="rounded=0;whiteSpace=wrap;html=1;" vertex="1" parent="1">
          <mxGeometry x="1360" y="505" width="60" height="90" as="geometry" />
        </mxCell>
        <mxCell id="jM7tnANGyQyyf5Dl-fpU-43" style="rounded=0;orthogonalLoop=1;jettySize=auto;html=1;exitX=0.5;exitY=1;exitDx=0;exitDy=0;entryX=0.5;entryY=0;entryDx=0;entryDy=0;endArrow=none;endFill=0;" edge="1" parent="1" source="jM7tnANGyQyyf5Dl-fpU-37" target="nb_ousC1VCXHv58T-TfJ-42">
          <mxGeometry relative="1" as="geometry" />
        </mxCell>
        <mxCell id="jM7tnANGyQyyf5Dl-fpU-37" value="" style="rounded=0;whiteSpace=wrap;html=1;" vertex="1" parent="1">
          <mxGeometry x="460" y="-230" width="60" height="90" as="geometry" />
        </mxCell>
        <mxCell id="jM7tnANGyQyyf5Dl-fpU-42" style="rounded=0;orthogonalLoop=1;jettySize=auto;html=1;exitX=0.5;exitY=1;exitDx=0;exitDy=0;entryX=0.5;entryY=0;entryDx=0;entryDy=0;endArrow=none;endFill=0;" edge="1" parent="1" source="jM7tnANGyQyyf5Dl-fpU-38" target="nb_ousC1VCXHv58T-TfJ-43">
          <mxGeometry relative="1" as="geometry" />
        </mxCell>
        <mxCell id="jM7tnANGyQyyf5Dl-fpU-38" value="" style="rounded=0;whiteSpace=wrap;html=1;" vertex="1" parent="1">
          <mxGeometry x="360" y="-230" width="60" height="90" as="geometry" />
        </mxCell>
        <mxCell id="jM7tnANGyQyyf5Dl-fpU-41" style="rounded=0;orthogonalLoop=1;jettySize=auto;html=1;exitX=0.5;exitY=1;exitDx=0;exitDy=0;entryX=0.5;entryY=0;entryDx=0;entryDy=0;endArrow=none;endFill=0;" edge="1" parent="1" source="jM7tnANGyQyyf5Dl-fpU-39" target="nb_ousC1VCXHv58T-TfJ-44">
          <mxGeometry relative="1" as="geometry" />
        </mxCell>
        <mxCell id="jM7tnANGyQyyf5Dl-fpU-39" value="" style="rounded=0;whiteSpace=wrap;html=1;" vertex="1" parent="1">
          <mxGeometry x="260" y="-230" width="60" height="90" as="geometry" />
        </mxCell>
        <mxCell id="jM7tnANGyQyyf5Dl-fpU-44" style="rounded=0;orthogonalLoop=1;jettySize=auto;html=1;exitX=0.5;exitY=1;exitDx=0;exitDy=0;entryX=0.5;entryY=0;entryDx=0;entryDy=0;endArrow=none;endFill=0;" edge="1" parent="1" source="jM7tnANGyQyyf5Dl-fpU-40" target="nb_ousC1VCXHv58T-TfJ-41">
          <mxGeometry relative="1" as="geometry" />
        </mxCell>
        <mxCell id="jM7tnANGyQyyf5Dl-fpU-40" value="" style="rounded=0;whiteSpace=wrap;html=1;" vertex="1" parent="1">
          <mxGeometry x="560" y="-230" width="60" height="90" as="geometry" />
        </mxCell>
        <mxCell id="jM7tnANGyQyyf5Dl-fpU-49" style="rounded=0;orthogonalLoop=1;jettySize=auto;html=1;exitX=0;exitY=0.5;exitDx=0;exitDy=0;entryX=0.5;entryY=0;entryDx=0;entryDy=0;endArrow=none;endFill=0;" edge="1" parent="1" source="jM7tnANGyQyyf5Dl-fpU-46" target="nb_ousC1VCXHv58T-TfJ-20">
          <mxGeometry relative="1" as="geometry" />
        </mxCell>
        <mxCell id="jM7tnANGyQyyf5Dl-fpU-46" value="" style="rounded=0;whiteSpace=wrap;html=1;" vertex="1" parent="1">
          <mxGeometry x="580" y="125" width="60" height="90" as="geometry" />
        </mxCell>
        <mxCell id="jM7tnANGyQyyf5Dl-fpU-51" style="rounded=0;orthogonalLoop=1;jettySize=auto;html=1;exitX=0;exitY=0.5;exitDx=0;exitDy=0;entryX=0.5;entryY=1;entryDx=0;entryDy=0;endArrow=none;endFill=0;" edge="1" parent="1" source="jM7tnANGyQyyf5Dl-fpU-47" target="nb_ousC1VCXHv58T-TfJ-22">
          <mxGeometry relative="1" as="geometry" />
        </mxCell>
        <mxCell id="jM7tnANGyQyyf5Dl-fpU-47" value="" style="rounded=0;whiteSpace=wrap;html=1;" vertex="1" parent="1">
          <mxGeometry x="580" y="315" width="60" height="90" as="geometry" />
        </mxCell>
        <mxCell id="jM7tnANGyQyyf5Dl-fpU-50" style="rounded=0;orthogonalLoop=1;jettySize=auto;html=1;exitX=0;exitY=0.5;exitDx=0;exitDy=0;entryX=1;entryY=0.5;entryDx=0;entryDy=0;endArrow=none;endFill=0;" edge="1" parent="1" source="jM7tnANGyQyyf5Dl-fpU-48" target="nb_ousC1VCXHv58T-TfJ-21">
          <mxGeometry relative="1" as="geometry" />
        </mxCell>
        <mxCell id="jM7tnANGyQyyf5Dl-fpU-48" value="" style="rounded=0;whiteSpace=wrap;html=1;" vertex="1" parent="1">
          <mxGeometry x="580" y="220" width="60" height="90" as="geometry" />
        </mxCell>
        <mxCell id="jM7tnANGyQyyf5Dl-fpU-57" style="rounded=0;orthogonalLoop=1;jettySize=auto;html=1;exitX=0;exitY=0.5;exitDx=0;exitDy=0;entryX=1;entryY=0.5;entryDx=0;entryDy=0;endArrow=none;endFill=0;" edge="1" parent="1" source="jM7tnANGyQyyf5Dl-fpU-52" target="nb_ousC1VCXHv58T-TfJ-54">
          <mxGeometry relative="1" as="geometry" />
        </mxCell>
        <mxCell id="jM7tnANGyQyyf5Dl-fpU-52" value="" style="rounded=0;whiteSpace=wrap;html=1;" vertex="1" parent="1">
          <mxGeometry x="1140" y="315" width="60" height="90" as="geometry" />
        </mxCell>
        <mxCell id="jM7tnANGyQyyf5Dl-fpU-55" style="rounded=0;orthogonalLoop=1;jettySize=auto;html=1;exitX=0;exitY=0.5;exitDx=0;exitDy=0;entryX=0.5;entryY=1;entryDx=0;entryDy=0;endArrow=none;endFill=0;" edge="1" parent="1" source="jM7tnANGyQyyf5Dl-fpU-53" target="nb_ousC1VCXHv58T-TfJ-56">
          <mxGeometry relative="1" as="geometry" />
        </mxCell>
        <mxCell id="jM7tnANGyQyyf5Dl-fpU-53" value="" style="rounded=0;whiteSpace=wrap;html=1;" vertex="1" parent="1">
          <mxGeometry x="1140" y="505" width="60" height="90" as="geometry" />
        </mxCell>
        <mxCell id="jM7tnANGyQyyf5Dl-fpU-56" style="rounded=0;orthogonalLoop=1;jettySize=auto;html=1;exitX=0;exitY=0.5;exitDx=0;exitDy=0;entryX=1;entryY=0.5;entryDx=0;entryDy=0;endArrow=none;endFill=0;" edge="1" parent="1" source="jM7tnANGyQyyf5Dl-fpU-54" target="nb_ousC1VCXHv58T-TfJ-53">
          <mxGeometry relative="1" as="geometry" />
        </mxCell>
        <mxCell id="jM7tnANGyQyyf5Dl-fpU-54" value="" style="rounded=0;whiteSpace=wrap;html=1;" vertex="1" parent="1">
          <mxGeometry x="1140" y="410" width="60" height="90" as="geometry" />
        </mxCell>
        <mxCell id="jM7tnANGyQyyf5Dl-fpU-61" style="rounded=0;orthogonalLoop=1;jettySize=auto;html=1;exitX=0.5;exitY=1;exitDx=0;exitDy=0;entryX=0.5;entryY=0;entryDx=0;entryDy=0;endArrow=none;endFill=0;endSize=16;" edge="1" parent="1" source="jM7tnANGyQyyf5Dl-fpU-59" target="nb_ousC1VCXHv58T-TfJ-71">
          <mxGeometry relative="1" as="geometry">
            <mxPoint x="1560" y="307.5" as="sourcePoint" />
            <mxPoint x="1490" y="340" as="targetPoint" />
          </mxGeometry>
        </mxCell>
        <mxCell id="jM7tnANGyQyyf5Dl-fpU-59" value="" style="rounded=0;whiteSpace=wrap;html=1;" vertex="1" parent="1">
          <mxGeometry x="1460" y="200" width="60" height="90" as="geometry" />
        </mxCell>
      </root>
    </mxGraphModel>
  </diagram>
</mxfile>
